HIERARCHY
ROOT Hips
{
	OFFSET 0.000000 0.000000 0.000000
	CHANNELS 6 Xposition Yposition Zposition Zrotation Yrotation Xrotation 
	JOINT LHipJoint
	{
		OFFSET 0.000000 0.000000 0.000000
		CHANNELS 3 Zrotation Yrotation Xrotation
		JOINT LeftUpLeg
		{
			OFFSET 1.363060 -1.794630 0.839290
			CHANNELS 3 Zrotation Yrotation Xrotation
			JOINT LeftLeg
			{
				OFFSET 2.448110 -6.726130 0.000000
				CHANNELS 3 Zrotation Yrotation Xrotation
				JOINT LeftFoot
				{
					OFFSET 2.562200 -7.039590 0.000000
					CHANNELS 3 Zrotation Yrotation Xrotation
					JOINT LeftToeBase
					{
						OFFSET 0.157640 -0.433110 2.322550
						CHANNELS 3 Zrotation Yrotation Xrotation
						End Site
						{
							OFFSET 0.000000 0.000000 0.000000
						}
					}
				}
			}
		}
	}
	JOINT RHipJoint
	{
		OFFSET 0.000000 0.000000 0.000000
		CHANNELS 3 Zrotation Yrotation Xrotation
		JOINT RightUpLeg
		{
			OFFSET -1.305520 -1.794630 0.839290
			CHANNELS 3 Zrotation Yrotation Xrotation
			JOINT RightLeg
			{
				OFFSET -2.542530 -6.985550 0.000000
				CHANNELS 3 Zrotation Yrotation Xrotation
				JOINT RightFoot
				{
					OFFSET -2.568260 -7.056230 0.000000
					CHANNELS 3 Zrotation Yrotation Xrotation
					JOINT RightToeBase
					{
						OFFSET -0.164730 -0.452590 2.363150
						CHANNELS 3 Zrotation Yrotation Xrotation
						End Site
						{
							OFFSET 0.000000 0.000000 0.000000
						}
					}
				}
			}
		}
	}
}
MOTION
Frames: 27
Frame Time: 0.008333
2.358914 17.048854 0.532742 -19.969161 -81.228427 9.677113 -11.216583 2.555025 0.720462 -5.038512 11.589052 -3.519838 -0.884493 0.819136 22.709205 2.748179 17.171484 -11.493293 -1.270100 0.000000 -32.818000 10.396740 -2.453099 -2.499071 1.040042 -19.657045 -3.848114 -0.415919 -2.708411 39.875268 -2.902182 -17.829160 4.365374 -3.955600 0.000000 -71.081200
2.358893 17.059278 0.561300 -20.842389 -80.573880 10.370287 -11.241891 2.541641 0.767406 -4.742617 11.355700 -3.183431 -0.859794 0.802067 22.392644 2.695415 16.851982 -11.375483 -1.216900 -0.000000 -33.077200 10.510225 -2.390957 -2.668535 0.929054 -20.696574 -6.034644 -0.526321 -2.899130 43.434703 -2.814276 -17.376141 5.221514 -3.988600 -0.000001 -69.148600
2.361009 17.070280 0.588921 -21.822161 -79.951523 11.196805 -11.274471 2.520853 0.806562 -4.406621 11.193328 -2.916871 -0.833652 0.782392 22.101344 2.637477 16.505750 -11.248403 -1.161800 0.000001 -33.401500 10.609290 -2.313374 -2.829171 0.940553 -21.650430 -8.389656 -0.625879 -3.090265 47.014645 -2.737082 -16.911152 5.756667 -3.929499 -0.000000 -66.703100
2.365483 17.081469 0.615471 -22.855205 -79.363560 12.072471 -11.312542 2.494674 0.832255 -4.035594 11.086003 -2.661872 -0.805400 0.762995 21.816720 2.577411 16.152112 -11.107833 -1.104100 -0.000000 -33.775899 10.693726 -2.216883 -3.002924 1.031653 -22.581045 -10.848000 -0.716277 -3.286582 50.556129 -2.661706 -16.406938 5.955405 -3.777700 -0.000000 -64.133899
2.372481 17.092685 0.640897 -23.978272 -78.823658 13.038302 -11.357200 2.460736 0.842081 -3.626845 11.046254 -2.426810 -0.774610 0.743198 21.545136 2.516152 15.795808 -10.959476 -1.046199 0.000000 -34.190600 10.760204 -2.104708 -3.183938 1.227509 -23.452108 -13.419877 -0.802273 -3.493368 54.047512 -2.589867 -15.900263 5.834831 -3.557600 0.000000 -61.742400
2.382113 17.103811 0.665252 -25.209281 -78.340254 14.110786 -11.408341 2.417665 0.834408 -3.181569 11.076136 -2.207994 -0.740780 0.722822 21.286420 2.455323 15.445941 -10.806596 -0.989400 0.000001 -34.631000 10.807014 -1.979080 -3.369669 1.539074 -24.248659 -16.103863 -0.888911 -3.713621 57.470014 -2.521574 -15.410805 5.442073 -3.293301 -0.000000 -59.779300
2.394660 17.114635 0.688624 -26.556189 -77.914389 15.285663 -11.465744 2.364276 0.804654 -2.698944 11.167876 -1.977448 -0.703086 0.703061 21.031762 2.396829 15.113708 -10.649416 -0.934000 -0.000000 -35.082700 10.833431 -1.840619 -3.564483 1.960490 -24.974335 -18.873337 -0.980616 -3.948534 60.797492 -2.455568 -14.941638 4.841102 -3.005001 0.000000 -58.400500
2.409922 17.125154 0.711160 -28.019247 -77.544471 16.564567 -11.527799 2.300572 0.754648 -2.185115 11.310835 -1.732824 -0.661203 0.683860 20.779605 2.342484 14.809222 -10.489486 -0.880500 -0.000000 -35.528600 10.839057 -1.690881 -3.765623 2.493840 -25.630618 -21.726622 -1.080565 -4.197028 64.009476 -2.391330 -14.493056 4.100776 -2.710300 0.000000 -57.661600
2.428111 17.135235 0.733041 -29.609000 -77.224644 17.948535 -11.594112 2.225751 0.681425 -1.638007 11.493318 -1.451100 -0.614362 0.666504 20.523252 2.293562 14.539820 -10.326496 -0.828799 0.000000 -35.956900 10.823377 -1.530630 -3.975619 3.134391 -26.222541 -24.640159 -1.190776 -4.457015 67.080399 -2.328470 -14.062190 3.290647 -2.423800 0.000001 -57.537700
2.449159 17.144797 0.754542 -31.316507 -76.944840 19.426000 -11.663073 2.140302 0.586797 -1.062935 11.697933 -1.125901 -0.562296 0.651799 20.261405 2.251375 14.312624 -10.160929 -0.778601 -0.000000 -36.354800 10.786124 -1.360158 -4.194205 3.877189 -26.761168 -27.605089 -1.311473 -4.724956 69.987211 -2.266427 -13.642314 2.471449 -2.155500 -0.000000 -57.934200
2.472844 17.153769 0.775816 -33.121826 -76.693162 20.977986 -11.733103 2.045240 0.473043 -0.465582 11.906427 -0.753566 -0.505025 0.640691 19.994905 2.216855 14.132216 -9.993518 -0.729900 0.000000 -36.712301 10.726733 -1.179591 -4.420845 4.717415 -27.256836 -30.614150 -1.441417 -4.996826 72.708619 -2.204877 -13.227860 1.690721 -1.912600 -0.000000 -58.699500
2.499288 17.161919 0.797406 -35.039067 -76.451244 22.603792 -11.806447 1.940427 0.337539 0.168281 12.108581 -0.313501 -0.441866 0.635638 19.724232 2.188993 13.991213 -9.824327 -0.682001 0.000000 -37.031400 10.643268 -0.990559 -4.661847 5.647930 -27.732472 -33.633250 -1.576655 -5.268114 75.214840 -2.142387 -12.808968 0.975080 -1.696100 0.000000 -59.633300
2.527378 17.169470 0.818566 -36.928369 -76.220002 24.209659 -11.873597 1.830153 0.197325 0.779239 12.270229 0.127609 -0.375962 0.633857 19.468333 2.171727 13.911587 -9.661127 -0.636700 0.000000 -37.281800 10.536667 -0.788613 -4.895385 6.672059 -28.155882 -36.743507 -1.717084 -5.535305 77.519557 -2.082341 -12.400457 0.355995 -1.513000 -0.000000 -60.549800
2.557740 17.175819 0.840358 -38.878532 -75.971594 25.841475 -11.944994 1.711745 0.040012 1.424169 12.403649 0.621356 -0.305254 0.640255 19.227066 2.159941 13.860650 -9.502890 -0.592800 0.000000 -37.492200 10.402504 -0.580341 -5.139375 7.783634 -28.567044 -39.858027 -1.854264 -5.793560 79.580640 -2.021278 -11.986349 -0.186885 -1.353600 0.000000 -61.220000
2.589154 17.181170 0.861854 -40.738406 -75.707692 27.394461 -12.012114 1.589015 -0.118416 2.044606 12.478052 1.099589 -0.233250 0.651901 19.022752 2.156846 13.855943 -9.359776 -0.552700 0.000000 -37.635800 10.241405 -0.361786 -5.371980 8.980215 -28.929667 -43.053302 -1.987242 -6.040310 81.416705 -1.962536 -11.583154 -0.646233 -1.220200 0.000000 -61.533301
2.621044 17.185435 0.882874 -42.459868 -75.418845 28.830029 -12.075028 1.462460 -0.274492 2.633053 12.484596 1.542619 -0.161161 0.668786 18.869543 2.161714 13.891520 -9.238149 -0.517700 -0.000000 -37.711900 10.052254 -0.134259 -5.587447 10.255158 -29.234508 -46.334529 -2.112118 -6.272870 83.026929 -1.906481 -11.193931 -1.039167 -1.108000 -0.000000 -61.413900
2.653336 17.188298 0.903791 -44.078963 -75.093854 30.172799 -12.140130 1.330275 -0.432882 3.218482 12.436813 1.957959 -0.088817 0.692530 18.776339 2.171074 13.944434 -9.142167 -0.488400 0.000000 -37.741400 9.833790 0.096979 -5.788129 11.605044 -29.479811 -49.665434 -2.223172 -6.487553 84.401909 -1.852508 -10.818999 -1.395336 -1.009900 0.000000 -60.877800
2.685305 17.189826 0.924063 -45.529608 -74.731270 31.376623 -12.204807 1.193353 -0.586594 3.778682 12.323334 2.311432 -0.017979 0.721520 18.757083 2.185471 14.017236 -9.079289 -0.466800 0.000000 -37.716500 9.587754 0.332048 -5.962858 13.015915 -29.642707 -53.067322 -2.318850 -6.682936 85.557452 -1.801736 -10.464204 -1.729093 -0.923300 0.000000 -60.033400
2.716457 17.190029 0.943743 -46.822785 -74.328400 32.454523 -12.271600 1.051071 -0.735881 4.324162 12.151280 2.598427 0.051012 0.755626 18.817058 2.203356 14.099751 -9.053450 -0.453800 0.000000 -37.647900 9.316094 0.567780 -6.109555 14.474138 -29.714193 -56.520530 -2.396228 -6.857365 86.500722 -1.753747 -10.127745 -2.062448 -0.843700 0.000000 -59.043800
2.746124 17.189037 0.962045 -47.885967 -73.886104 33.353137 -12.335875 0.904941 -0.872509 4.825023 11.900526 2.789463 0.116676 0.792847 18.964219 2.226584 14.203734 -9.070280 -0.451400 -0.000001 -37.524000 9.022769 0.806117 -6.219257 15.950804 -29.681140 -60.042021 -2.455969 -7.012055 87.255361 -1.708541 -9.806055 -2.403303 -0.769100 -0.000000 -58.076000
2.773879 17.186969 0.978944 -48.727950 -73.403319 34.083284 -12.398456 0.755233 -0.995554 5.284934 11.571268 2.884895 0.178953 0.832780 19.197223 2.254777 14.327013 -9.131077 -0.459800 -0.000001 -37.351600 8.711362 1.045355 -6.292296 17.421982 -29.547138 -63.610369 -2.496894 -7.148050 87.833120 -1.664594 -9.488029 -2.764323 -0.696400 0.000000 -57.304700
2.799726 17.183832 0.994811 -49.403966 -72.883312 34.687600 -12.462690 0.601622 -1.108541 5.722802 11.178182 2.903728 0.238478 0.875834 19.505710 2.286402 14.461037 -9.232310 -0.478500 -0.000000 -37.145700 8.385768 1.282075 -6.334021 18.869568 -29.325305 -67.185817 -2.516454 -7.266177 88.237531 -1.619320 -9.156604 -3.160381 -0.621700 -0.000000 -56.881700
2.823284 17.179843 1.009373 -49.891943 -72.330169 35.150209 -12.525938 0.445950 -1.208431 6.124380 10.712908 2.845406 0.294739 0.921022 19.882413 2.322545 14.613470 -9.371982 -0.507299 0.000000 -36.905100 8.050350 1.516711 -6.344031 20.267818 -29.029231 -70.761910 -2.514279 -7.369535 88.477218 -1.570585 -8.794300 -3.586399 -0.545100 0.000000 -56.903400
2.844597 17.175066 1.022556 -50.196789 -71.750175 35.472002 -12.586960 0.289443 -1.295733 6.484225 10.176528 2.720921 0.347480 0.967965 20.315324 2.363314 14.786290 -9.545430 -0.545500 -0.000000 -36.634900 7.709168 1.748860 -6.324678 21.597760 -28.679391 -74.323266 -2.488540 -7.460442 88.548273 -1.515936 -8.382722 -4.029415 -0.467900 -0.000000 -57.420001
2.863615 17.169680 1.034331 -50.324893 -71.150847 35.656634 -12.644464 0.133558 -1.372306 6.797957 9.574652 2.544855 0.396235 1.016362 20.790234 2.408264 14.978172 -9.745978 -0.591600 -0.000000 -36.342700 7.366042 1.977845 -6.278219 22.846489 -28.298175 -77.854092 -2.436454 -7.540335 88.435262 -1.453265 -7.906641 -4.462018 -0.393700 -0.000000 -58.416700
2.880543 17.163722 1.044631 -50.285781 -70.541333 35.706929 -12.697051 -0.020632 -1.441504 7.061257 8.918014 2.332813 0.440309 1.065970 21.292312 2.456415 15.184880 -9.966284 -0.644300 -0.000000 -36.037800 7.024822 2.203432 -6.206242 24.006102 -27.906449 -81.338885 -2.354482 -7.609013 88.111468 -1.381323 -7.357958 -4.841786 -0.328000 0.000000 -59.794100
2.895634 17.157299 1.053373 -50.092533 -69.933680 35.628568 -12.743204 -0.172223 -1.508589 7.270351 8.223083 2.105052 0.478926 1.116574 21.803219 2.506332 15.399968 -10.196143 -0.701101 0.000000 -35.730600 6.689902 2.425310 -6.110234 25.071913 -27.522102 -84.756357 -2.238564 -7.664720 87.540409 -1.300028 -6.738284 -5.116621 -0.276600 -0.000000 -61.343200
